<svg xmlns="http://www.w3.org/2000/svg" xmlns:xlink="http://www.w3.org/1999/xlink" width="88.792" height="69.685" viewBox="0 0 88.792 69.685">
  <defs>
    <clipPath id="clip-path">
      <rect id="Rectangle_302" data-name="Rectangle 302" width="88.792" height="69.685" fill="none"/>
    </clipPath>
  </defs>
  <g id="Group_11578" data-name="Group 11578" transform="translate(0 0)">
    <rect id="Rectangle_301" data-name="Rectangle 301" width="7.729" height="29.165" transform="translate(0.079 29.463)" fill="#08466f"/>
    <path id="Path_3725" data-name="Path 3725" d="M16.863,47.5V53.64h4.25V76.663h7.564V53.529h4.251V47.5Z" transform="translate(-6.403 -18.035)" fill="#08466f"/>
    <path id="Path_3726" data-name="Path 3726" d="M45.853,47.5V53.64H50.1V76.663h7.564V53.529h4.251V47.5Z" transform="translate(-17.41 -18.035)" fill="#08466f"/>
    <path id="Path_3727" data-name="Path 3727" d="M63.509,0,47.691,24.762l-32.2,3.484h34.9l10.2-15.252,1.13,14.029,16.1-1.7L62.662,35.119,63.885,50.56,50.391,43.122,47.5,45.57v3.861l3.484-1.789L70.1,59.694,67.733,37.284l26.94-16.947-28.34,2.731Z" transform="translate(-5.882 0)" fill="#fbb315"/>
    <g id="Group_11577" data-name="Group 11577" transform="translate(0 0)">
      <g id="Group_11576" data-name="Group 11576" clip-path="url(#clip-path)">
        <path id="Path_3728" data-name="Path 3728" d="M110.93,90.144a3.821,3.821,0,1,1,3.822-3.821,3.826,3.826,0,0,1-3.822,3.821m0-6.867a3.045,3.045,0,1,0,3.046,3.046,3.049,3.049,0,0,0-3.046-3.046" transform="translate(-40.668 -31.325)" fill="#08466f"/>
        <path id="Path_3729" data-name="Path 3729" d="M112.033,87.074a.7.7,0,0,0,.462-.124.612.612,0,0,0,0-.787.727.727,0,0,0-.462-.117H111.6v1.028Zm-.434.71V89.3h-1.032v-4h1.576a1.975,1.975,0,0,1,1.156.268.948.948,0,0,1,.369.837,1.053,1.053,0,0,1-.19.652,1.1,1.1,0,0,1-.578.373.792.792,0,0,1,.38.221,1.894,1.894,0,0,1,.337.516l.563,1.133h-1.1l-.489-.993a1.074,1.074,0,0,0-.3-.408.677.677,0,0,0-.4-.112H111.6" transform="translate(-41.981 -32.386)" fill="#08466f"/>
        <path id="Path_3730" data-name="Path 3730" d="M3.606,107.063l-.361-1.075H1.5l-.346,1.075H0l1.8-4.714H3.01l1.8,4.714Zm-1.869-1.809h1.28l-.648-1.973Z" transform="translate(0 -38.861)" fill="#ed2d7b"/>
        <path id="Path_3731" data-name="Path 3731" d="M11.873,107.063v-4.714h1.832a2.39,2.39,0,0,1,1.755.609,2.785,2.785,0,0,1,0,3.489,2.341,2.341,0,0,1-1.733.615Zm1.1-3.925v3.136h.633q1.332,0,1.332-1.5v-.136q0-1.5-1.339-1.5Z" transform="translate(-4.508 -38.861)" fill="#ed2d7b"/>
        <path id="Path_3732" data-name="Path 3732" d="M22.2,107.759l-.088-.306a1.8,1.8,0,0,1-.527.3,1.612,1.612,0,0,1-.578.113,1.279,1.279,0,0,1-.872-.286,1.039,1.039,0,0,1-.151-1.337,1.171,1.171,0,0,1,.507-.391,1.954,1.954,0,0,1,.78-.143,3.876,3.876,0,0,1,.78.089v-.341a.538.538,0,0,0-.14-.428.838.838,0,0,0-.515-.115,4.816,4.816,0,0,0-1.332.21v-.66a2.874,2.874,0,0,1,.685-.207,4.483,4.483,0,0,1,.839-.078,1.759,1.759,0,0,1,1.107.282,1.076,1.076,0,0,1,.349.888v2.408Zm-.89-.558a1.063,1.063,0,0,0,.379-.074,1.477,1.477,0,0,0,.364-.2v-.592a4.058,4.058,0,0,0-.581-.048q-.64,0-.64.476a.423.423,0,0,0,.125.327.5.5,0,0,0,.353.115" transform="translate(-7.521 -39.557)" fill="#ed2d7b"/>
        <path id="Path_3733" data-name="Path 3733" d="M28.631,107.158a2.627,2.627,0,0,1-.89.143,1.337,1.337,0,0,1-.924-.272,1.089,1.089,0,0,1-.3-.844V104.5h-.567v-.612l.6-.109.162-.952h.883v.939h1.015v.734H27.594v1.633a.36.36,0,0,0,.118.306.68.68,0,0,0,.4.088,3.839,3.839,0,0,0,.522-.041Z" transform="translate(-9.854 -39.044)" fill="#ed2d7b"/>
        <path id="Path_3734" data-name="Path 3734" d="M33.35,107.759l-.088-.306a1.8,1.8,0,0,1-.527.3,1.612,1.612,0,0,1-.578.113,1.279,1.279,0,0,1-.872-.286,1.039,1.039,0,0,1-.151-1.337,1.171,1.171,0,0,1,.507-.391,1.954,1.954,0,0,1,.78-.143,3.876,3.876,0,0,1,.78.089v-.341a.538.538,0,0,0-.14-.428.838.838,0,0,0-.515-.115,4.816,4.816,0,0,0-1.332.21v-.66a2.865,2.865,0,0,1,.685-.207,4.483,4.483,0,0,1,.839-.078,1.759,1.759,0,0,1,1.107.282,1.076,1.076,0,0,1,.349.888v2.408Zm-.89-.558a1.063,1.063,0,0,0,.379-.074,1.477,1.477,0,0,0,.364-.2v-.592a4.058,4.058,0,0,0-.581-.048q-.64,0-.64.476a.423.423,0,0,0,.125.327.5.5,0,0,0,.353.115" transform="translate(-11.755 -39.557)" fill="#ed2d7b"/>
        <path id="Path_3735" data-name="Path 3735" d="M41.891,104.931a2.195,2.195,0,0,1-.942-.548,1.186,1.186,0,0,1-.287-.819,1.207,1.207,0,0,1,.511-1.02,2.244,2.244,0,0,1,1.373-.381,4.191,4.191,0,0,1,1.412.245v.775a4.826,4.826,0,0,0-1.324-.2q-.868,0-.868.517a.384.384,0,0,0,.151.313,1.912,1.912,0,0,0,.563.259l.545.184a2.383,2.383,0,0,1,.975.541,1.132,1.132,0,0,1,.291.806,1.3,1.3,0,0,1-.545,1.1,2.454,2.454,0,0,1-1.494.405,4.792,4.792,0,0,1-.824-.072,3.326,3.326,0,0,1-.707-.193v-.776a6.379,6.379,0,0,0,.787.163,5.279,5.279,0,0,0,.758.061,1.268,1.268,0,0,0,.669-.146.465.465,0,0,0,.236-.418.416.416,0,0,0-.144-.333,1.964,1.964,0,0,0-.577-.272Z" transform="translate(-15.439 -38.79)" fill="#ed2d7b"/>
        <path id="Path_3736" data-name="Path 3736" d="M49.827,107.158a2.627,2.627,0,0,1-.89.143,1.337,1.337,0,0,1-.924-.272,1.089,1.089,0,0,1-.3-.844V104.5h-.567v-.612l.6-.109.162-.952h.883v.939h1.015v.734H48.79v1.633a.36.36,0,0,0,.118.306.68.68,0,0,0,.4.088,3.838,3.838,0,0,0,.522-.041Z" transform="translate(-17.902 -39.044)" fill="#ed2d7b"/>
        <path id="Path_3737" data-name="Path 3737" d="M52.535,107.8v-3.476h.883l.133.517a2.071,2.071,0,0,1,.555-.425,1.258,1.258,0,0,1,.556-.126,2.154,2.154,0,0,1,.295.02v.918a2.4,2.4,0,0,0-.457-.041,2.476,2.476,0,0,0-.89.157V107.8Z" transform="translate(-19.947 -39.598)" fill="#ed2d7b"/>
        <path id="Path_3738" data-name="Path 3738" d="M59.35,107.759l-.088-.306a1.8,1.8,0,0,1-.527.3,1.612,1.612,0,0,1-.578.113,1.279,1.279,0,0,1-.872-.286,1.039,1.039,0,0,1-.151-1.337,1.171,1.171,0,0,1,.507-.391,1.953,1.953,0,0,1,.78-.143,3.876,3.876,0,0,1,.78.089v-.341a.538.538,0,0,0-.14-.428.838.838,0,0,0-.515-.115,4.816,4.816,0,0,0-1.332.21v-.66a2.874,2.874,0,0,1,.685-.207,4.483,4.483,0,0,1,.839-.078,1.759,1.759,0,0,1,1.107.282,1.076,1.076,0,0,1,.349.888v2.408Zm-.89-.558a1.063,1.063,0,0,0,.379-.074,1.477,1.477,0,0,0,.364-.2v-.592a4.058,4.058,0,0,0-.581-.048q-.64,0-.64.476a.423.423,0,0,0,.125.327.5.5,0,0,0,.353.115" transform="translate(-21.627 -39.557)" fill="#ed2d7b"/>
        <path id="Path_3739" data-name="Path 3739" d="M65.781,107.158a2.627,2.627,0,0,1-.89.143,1.337,1.337,0,0,1-.924-.272,1.089,1.089,0,0,1-.3-.844V104.5H63.1v-.612l.6-.109.162-.952h.883v.939h1.015v.734H64.744v1.633a.36.36,0,0,0,.118.306.68.68,0,0,0,.4.088,3.839,3.839,0,0,0,.522-.041Z" transform="translate(-23.96 -39.044)" fill="#ed2d7b"/>
        <path id="Path_3740" data-name="Path 3740" d="M69.174,106.262a.838.838,0,0,0,.294.649,1.386,1.386,0,0,0,.832.2,4.668,4.668,0,0,0,1.148-.17v.659a2.524,2.524,0,0,1-.614.19,3.951,3.951,0,0,1-.739.068,1.98,1.98,0,0,1-1.424-.469,1.848,1.848,0,0,1,1.343-3.211,1.576,1.576,0,0,1,1.122.371,1.384,1.384,0,0,1,.394,1.058,2.961,2.961,0,0,1-.022.341,2.575,2.575,0,0,1-.051.313Zm.8-1.394a.791.791,0,0,0-.57.2.865.865,0,0,0-.239.582h1.442v-.115q0-.667-.633-.667" transform="translate(-25.888 -39.556)" fill="#ed2d7b"/>
        <path id="Path_3741" data-name="Path 3741" d="M77.084,107.337a1.5,1.5,0,0,1-.986.347,1.371,1.371,0,0,1-1.092-.473,1.863,1.863,0,0,1-.409-1.262,1.918,1.918,0,0,1,.412-1.286,1.38,1.38,0,0,1,1.1-.483,1.639,1.639,0,0,1,.581.1,1.456,1.456,0,0,1,.486.3l.081-.3h.883v3.2a1.674,1.674,0,0,1-.5,1.293,1.96,1.96,0,0,1-1.383.462,3.222,3.222,0,0,1-1.354-.292v-.667a4.619,4.619,0,0,0,1.258.211.99.99,0,0,0,.7-.208.9.9,0,0,0,.217-.676Zm-.655-.388a1.2,1.2,0,0,0,.342-.051,1.256,1.256,0,0,0,.313-.14v-1.674a1.421,1.421,0,0,0-.707-.17q-.706,0-.707,1.007a1.317,1.317,0,0,0,.184.775.662.662,0,0,0,.574.252" transform="translate(-28.324 -39.557)" fill="#ed2d7b"/>
        <path id="Path_3742" data-name="Path 3742" d="M82.679,107.876l-1.486-3.53h1.14l.839,2.6.795-2.6h1.111l-1.589,3.945a1.788,1.788,0,0,1-.522.775,1.242,1.242,0,0,1-.78.238,2.36,2.36,0,0,1-.713-.109v-.673q.235.02.419.02a.758.758,0,0,0,.478-.133,1,1,0,0,0,.287-.459Z" transform="translate(-30.828 -39.619)" fill="#ed2d7b"/>
        <path id="Path_3743" data-name="Path 3743" d="M95.178,106.887a3.983,3.983,0,0,1-1.332.211,2.619,2.619,0,0,1-1.884-.615,2.842,2.842,0,0,1,.03-3.629,2.6,2.6,0,0,1,1.883-.646,3.934,3.934,0,0,1,1.229.19v.8a5.746,5.746,0,0,0-1.1-.136,1.568,1.568,0,0,0-1.144.374,1.544,1.544,0,0,0-.379,1.143v.156a1.549,1.549,0,0,0,.368,1.132,1.526,1.526,0,0,0,1.126.371,6.5,6.5,0,0,0,1.2-.156Z" transform="translate(-34.674 -38.807)" fill="#ed2d7b"/>
        <path id="Path_3744" data-name="Path 3744" d="M100.289,107.861a1.865,1.865,0,0,1-1.369-.486,2.107,2.107,0,0,1,0-2.708,2.169,2.169,0,0,1,2.737,0,2.1,2.1,0,0,1,0,2.708,1.863,1.863,0,0,1-1.368.486m0-.762q.772,0,.772-1.081t-.772-1.075q-.772,0-.773,1.075t.773,1.081" transform="translate(-37.372 -39.557)" fill="#ed2d7b"/>
        <path id="Path_3745" data-name="Path 3745" d="M110.439,107.759v-2.353a.4.4,0,0,0-.449-.463,1.983,1.983,0,0,0-.8.177v2.639h-1.074v-2.353a.4.4,0,0,0-.448-.463,1.915,1.915,0,0,0-.81.184v2.633h-1.074v-3.476h.883l.1.333a3.26,3.26,0,0,1,.7-.337,2.147,2.147,0,0,1,.644-.1,1.015,1.015,0,0,1,.934.435,3.1,3.1,0,0,1,.707-.333,2.3,2.3,0,0,1,.684-.1,1.124,1.124,0,0,1,.8.265.966.966,0,0,1,.283.741v2.571Z" transform="translate(-40.164 -39.557)" fill="#ed2d7b"/>
        <path id="Path_3746" data-name="Path 3746" d="M116.659,109.159v-4.877h.883l.088.326a1.658,1.658,0,0,1,.534-.313,1.821,1.821,0,0,1,.636-.116,1.413,1.413,0,0,1,1.129.483,1.934,1.934,0,0,1,.416,1.306,2.289,2.289,0,0,1-.191.958,1.545,1.545,0,0,1-.551.663,1.459,1.459,0,0,1-.832.242,1.845,1.845,0,0,1-.574-.089,1.406,1.406,0,0,1-.463-.244v1.659Zm1.8-4.231a1.489,1.489,0,0,0-.721.183v1.79a1.436,1.436,0,0,0,.721.184.712.712,0,0,0,.607-.259,1.366,1.366,0,0,0,.195-.816,1.4,1.4,0,0,0-.192-.823.708.708,0,0,0-.61-.259" transform="translate(-44.294 -39.556)" fill="#ed2d7b"/>
        <path id="Path_3747" data-name="Path 3747" d="M125.965,107.759l-.088-.306a1.8,1.8,0,0,1-.527.3,1.612,1.612,0,0,1-.578.113,1.279,1.279,0,0,1-.872-.286,1.039,1.039,0,0,1-.151-1.337,1.171,1.171,0,0,1,.507-.391,1.954,1.954,0,0,1,.78-.143,3.876,3.876,0,0,1,.78.089v-.341a.538.538,0,0,0-.14-.428.838.838,0,0,0-.515-.115,4.816,4.816,0,0,0-1.332.21v-.66a2.874,2.874,0,0,1,.685-.207,4.483,4.483,0,0,1,.839-.078,1.759,1.759,0,0,1,1.107.282,1.076,1.076,0,0,1,.349.888v2.408Zm-.89-.558a1.063,1.063,0,0,0,.379-.074,1.477,1.477,0,0,0,.364-.2v-.592a4.058,4.058,0,0,0-.581-.048q-.64,0-.64.476a.423.423,0,0,0,.125.327.5.5,0,0,0,.353.115" transform="translate(-46.92 -39.557)" fill="#ed2d7b"/>
        <path id="Path_3748" data-name="Path 3748" d="M132.843,107.759V105.48a.548.548,0,0,0-.132-.408.558.558,0,0,0-.405-.13,1.583,1.583,0,0,0-.8.231v2.585H130.43v-3.476h.883l.1.374a2.376,2.376,0,0,1,1.412-.476,1.144,1.144,0,0,1,.806.262.966.966,0,0,1,.283.745v2.571Z" transform="translate(-49.523 -39.557)" fill="#ed2d7b"/>
        <path id="Path_3749" data-name="Path 3749" d="M138.155,107.876l-1.486-3.53h1.14l.839,2.6.795-2.6h1.111l-1.589,3.945a1.788,1.788,0,0,1-.522.775,1.242,1.242,0,0,1-.78.238,2.36,2.36,0,0,1-.713-.109v-.673q.235.02.419.02a.758.758,0,0,0,.478-.133,1,1,0,0,0,.287-.459Z" transform="translate(-51.892 -39.619)" fill="#ed2d7b"/>
      </g>
    </g>
  </g>
</svg>
